<?xml version="1.0" standalone="no"?>
<!DOCTYPE svg PUBLIC "-//W3C//DTD SVG 20010904//EN"
 "http://www.w3.org/TR/2001/REC-SVG-20010904/DTD/svg10.dtd">
<svg version="1.0" xmlns="http://www.w3.org/2000/svg"
 width="400.000000pt" height="400.000000pt" viewBox="0 0 500.000000 500.000000"
 preserveAspectRatio="xMidYMid meet">

<g transform="translate(0.000000,500.000000) scale(0.100000,-0.100000)"
fill="#F2F2F2" stroke="none">
<path d="M3963 3812 c-141 -49 -234 -183 -220 -317 12 -116 80 -192 245 -272
146 -71 182 -102 182 -154 0 -96 -131 -127 -269 -64 -30 14 -70 37 -87 50 -18
14 -37 25 -42 25 -5 0 -35 -43 -67 -96 -66 -111 -70 -99 56 -164 177 -91 399
-91 542 0 50 32 101 100 117 160 16 57 12 160 -9 205 -25 55 -119 138 -199
176 -163 76 -194 94 -218 122 -19 23 -24 37 -19 56 22 86 133 101 273 36 30
-14 56 -25 58 -25 2 0 25 41 50 92 52 104 53 101 -36 140 -112 49 -264 62
-357 30z"/>
<path d="M571 3603 c32 -115 99 -347 147 -518 l89 -310 134 0 133 0 81 282
c44 156 82 283 85 283 3 0 41 -127 85 -283 l81 -282 131 -3 132 -3 20 68 c51
172 271 955 271 964 0 5 -54 9 -129 9 l-129 0 -88 -355 c-49 -195 -91 -352
-94 -347 -4 4 -43 147 -88 317 -45 171 -87 327 -92 348 l-11 37 -89 0 -88 0
-11 -32 c-5 -18 -47 -172 -92 -343 -44 -170 -85 -316 -89 -324 -4 -8 -45 137
-96 343 l-89 356 -131 0 -131 0 58 -207z"/>
<path d="M2296 3768 c-9 -63 -86 -939 -86 -971 l0 -27 115 0 114 0 5 33 c5 31
46 534 46 573 1 33 13 2 110 -276 51 -146 97 -277 102 -292 10 -27 12 -28 82
-28 l72 0 104 300 c58 165 107 300 110 300 5 0 51 -543 50 -592 0 -16 12 -18
120 -18 66 0 120 4 120 9 0 5 -20 233 -45 507 -25 275 -45 505 -45 512 0 9
-32 12 -128 12 l-129 0 -113 -295 c-62 -163 -116 -292 -120 -288 -4 4 -56 137
-116 295 l-109 288 -127 0 -127 0 -5 -42z"/>
<path d="M550 1795 l0 -65 215 0 215 0 0 -145 0 -145 -150 0 -150 0 0 105 0
105 -65 0 -65 0 0 -170 0 -170 280 0 280 0 0 275 0 275 -280 0 -280 0 0 -65z"/>
<path d="M1670 1585 l0 -275 275 0 275 0 0 65 0 65 -210 0 -210 0 0 40 0 40
210 0 210 0 0 65 0 65 -210 0 -210 0 0 40 0 40 210 0 210 0 0 65 0 65 -275 0
-275 0 0 -275z"/>
<path d="M2780 1585 l0 -275 64 0 65 0 3 53 3 52 143 3 142 3 0 -56 0 -55 65
0 65 0 0 275 0 275 -275 0 -275 0 0 -275z m420 55 l0 -90 -145 0 -145 0 0 90
0 90 145 0 145 0 0 -90z"/>
<path d="M3900 1585 l0 -275 275 0 275 0 0 65 0 65 -210 0 -210 0 0 210 0 210
-65 0 -65 0 0 -275z"/>
</g>
</svg>
